<svg width="168" height="41" viewBox="0 0 168 41" fill="none" xmlns="http://www.w3.org/2000/svg">
<path d="M65.7421 20.2894C64.048 20.2894 62.5422 19.9201 61.2246 19.1793C59.907 18.4384 58.8809 17.3463 58.1509 15.9031C57.4186 14.4598 57.0536 12.7039 57.0536 10.6331C57.0536 8.56228 57.4393 6.86304 58.2083 5.4198C58.9773 3.97656 60.0791 2.86638 61.5138 2.08698C62.9462 1.30759 64.6357 0.917887 66.58 0.917887C68.7355 0.917887 70.4778 1.30306 71.8046 2.07112C73.1314 2.83919 74.162 4.06038 74.8943 5.73245L70.3056 7.52688C70.0554 6.55943 69.6124 5.85481 68.9788 5.41753C68.3429 4.98026 67.5556 4.76275 66.6121 4.76275C65.6687 4.76275 64.8607 4.98706 64.1881 5.4334C63.5132 5.87973 63.0036 6.53451 62.6593 7.4C62.3126 8.26549 62.1405 9.33262 62.1405 10.6059C62.1405 11.8792 62.3172 13.0461 62.6753 13.9387C63.0311 14.8314 63.5591 15.4907 64.2638 15.9189C64.9663 16.3472 65.8362 16.5601 66.8761 16.5601C67.4339 16.5601 67.9435 16.4944 68.4049 16.3608C68.8663 16.2271 69.2703 16.0322 69.6169 15.7762C69.9636 15.5202 70.2321 15.1962 70.425 14.8088C70.6178 14.4191 70.7142 13.9591 70.7142 13.4267V13.1412H66.355V9.86506H74.9287V20.0062H71.5521L71.1779 15.5904L71.9859 16.2747C71.5819 17.5661 70.8542 18.5585 69.8075 19.2518C68.7584 19.9451 67.4064 20.2917 65.7513 20.2917L65.7421 20.2894Z" fill="#E3E0BA"/>
<path d="M95.5355 20.004H90.4257L89.0989 15.7581H82.5751L81.2184 20.004H76.2257L82.9217 1.2011H88.8671L95.5355 20.004ZM83.5002 12.4275L85.837 11.6142L88.1761 12.4275L85.837 4.82166L83.5002 12.4275Z" fill="#E3E0BA"/>
<path d="M111.225 1.2011V4.98932H105.021V20.004H100.055V4.98932H93.8207V1.2011H111.225Z" fill="#E3E0BA"/>
<path d="M130.315 1.2011V4.98932H124.11V20.004H119.145V4.98932H112.91V1.2011H130.315Z" fill="#E3E0BA"/>
<path d="M149.03 1.2011V12.3414C149.03 15.0013 148.314 16.9906 146.879 18.3092C145.444 19.6301 143.323 20.2894 140.514 20.2894C137.704 20.2894 135.606 19.6301 134.164 18.3092C132.72 16.9883 132 14.9991 132 12.3414V1.2011H136.992V12.4253C136.992 13.7734 137.286 14.7816 137.871 15.4454C138.459 16.1115 139.338 16.4423 140.514 16.4423C141.689 16.4423 142.596 16.1093 143.183 15.4454C143.771 14.7816 144.062 13.7734 144.062 12.4253V1.2011H149.03Z" fill="#E3E0BA"/>
<path d="M158.763 1.2011C161.745 1.2011 164.031 2.01901 165.62 3.65256C167.208 5.28612 168 7.6039 168 10.6037C168 13.6034 167.206 15.9212 165.62 17.5548C164.031 19.1883 161.747 20.004 158.763 20.004H150.68V1.2011H158.763ZM158.272 16.3018C159.888 16.3018 161.068 15.8215 161.807 14.8631C162.548 13.9048 162.918 12.4842 162.918 10.6037C162.918 8.72315 162.546 7.30257 161.807 6.34419C161.065 5.38581 159.888 4.90549 158.272 4.90549H155.646V16.3018H158.272Z" fill="#E3E0BA"/>
<path d="M65.3611 34.4545C65.2968 34.7898 65.2325 35.1251 65.2325 35.4196C65.2325 36.0699 65.6159 36.301 66.1668 36.3848L66.316 36.4052L62.7672 37.2639L63.1918 35.2724C62.1726 36.5933 60.8963 37.2435 59.558 37.2435C57.8364 37.2435 57.0513 35.8388 57.0513 34.0557C57.0513 30.9313 59.4524 26.7806 62.9577 26.7806C63.7014 26.7806 64.3166 27.0321 64.6793 27.662L65.3817 24.5172C65.4024 24.413 65.4024 24.3065 65.4024 24.2023C65.4024 23.6585 64.9571 23.364 64.4245 23.2801L64.2983 23.2597L68.017 22.358L65.3611 34.459V34.4545ZM62.875 28.1853C60.8573 28.1853 59.3491 31.5408 59.3491 33.743C59.3491 34.8759 59.7095 35.755 60.5612 35.755C61.5391 35.755 62.6225 34.8532 63.3433 33.3851C63.7267 32.5875 64.172 30.5122 64.172 29.7577C64.172 28.8356 63.8323 28.1853 62.875 28.1853Z" fill="#E3E0BA"/>
<path d="M69.9314 33.197V33.3443C69.9314 34.6244 70.6109 35.755 72.0548 35.755C73.1819 35.755 74.5821 35.1047 75.4751 34.1622C74.9242 36.0925 72.8834 37.2866 71.0562 37.2866C69.0591 37.2866 67.7209 35.9861 67.7209 33.7634C67.7209 30.2833 70.8221 26.7806 74.2217 26.7806C75.4338 26.7806 76.5792 27.4308 76.5792 28.7721C76.5792 31.4139 72.7985 33.1132 69.9291 33.197H69.9314ZM73.6479 28.1015C72.4152 28.1015 70.4617 29.6535 69.9498 32.0234C72.0525 31.8965 74.7084 30.8702 74.7084 29.0871C74.7084 28.5206 74.3044 28.1015 73.6456 28.1015H73.6479Z" fill="#E3E0BA"/>
<path d="M83.5346 30.0726C83.5552 29.9458 83.5989 29.7169 83.5989 29.6104C83.5989 28.6045 82.7909 28.1015 81.8772 28.1015C81.0692 28.1015 80.05 28.5841 80.05 29.5266C80.05 31.1194 83.9386 31.7492 83.9386 34.2868C83.9386 36.3622 81.8772 37.2843 79.8595 37.2843C78.7324 37.2843 77.479 37.0124 76.694 36.5298L77.4584 33.5731C77.5846 34.8509 78.3077 35.943 79.8365 35.943C80.9407 35.943 81.7923 35.44 81.7923 34.6221C81.7923 33.0293 78.0736 32.5241 78.0736 29.9661C78.0736 27.7231 80.2612 26.758 82.132 26.758C83.3647 26.758 84.8729 27.1975 84.8729 28.4142C84.8729 29.1482 84.1704 29.6943 83.5346 30.0704V30.0726Z" fill="#E3E0BA"/>
<path d="M88.1715 34.6652C88.0659 35.1477 88.0223 35.5239 88.0223 35.8388C88.0223 36.6159 88.2771 36.9082 88.447 36.9512H85.4513L87.2372 28.9625C87.2579 28.8378 87.2786 28.6906 87.2786 28.5637C87.2786 28.0811 86.8952 27.662 86.4292 27.662H86.28L89.8908 26.7602L88.1692 34.6652H88.1715ZM89.0851 25.249C88.3001 25.249 87.8111 24.6826 87.8111 23.9916C87.8111 23.194 88.4286 22.5438 89.2986 22.5438C90.0837 22.5438 90.552 23.1102 90.552 23.8012C90.552 24.5761 89.9574 25.249 89.0851 25.249Z" fill="#E3E0BA"/>
<path d="M100.772 28.3326H98.7102C99.0912 28.6883 99.3254 29.4224 99.3254 30.0522C99.3254 32.2341 97.1997 33.7226 94.6517 33.7226C94.4405 33.7226 94.2271 33.7023 94.0365 33.6819C93.5269 33.8903 92.7396 34.2891 92.7396 34.6244C92.7396 35.0866 94.0985 35.2746 95.6939 35.6303C97.4155 36.0291 98.9237 36.6159 98.9237 38.0637C98.9237 40.1594 95.8638 41 93.6119 41C90.8068 41 89.0874 40.1617 89.0874 38.7978C89.0874 37.9391 90.1916 36.9535 92.1886 36.4913C91.1258 36.1764 90.552 35.653 90.552 35.107C90.552 34.4363 91.4656 33.743 92.6753 33.2831C91.8053 32.8209 91.1878 31.9826 91.1878 30.8724C91.1878 28.3552 93.481 26.8033 95.9671 26.8033C96.5822 26.8033 97.1561 26.9301 97.6657 27.0548C97.9412 27.1386 98.6436 27.159 99.1096 27.159C99.8097 27.159 100.618 27.0344 101.127 26.7398L100.767 28.3326H100.772ZM93.5453 36.8674C92.1221 37.2231 91.1235 37.7895 91.1235 38.5032C91.1235 39.2169 92.0371 39.7811 93.9493 39.7811C95.563 39.7811 96.6695 39.2146 96.6695 38.5236C96.6695 37.5584 95.4368 37.2027 93.5453 36.8674ZM95.5424 28.0381C94.2041 28.0381 93.3341 29.2117 93.3341 30.6594C93.3341 31.645 93.823 32.4833 95.0121 32.4833C96.3091 32.4833 97.2434 31.3505 97.2434 29.9254C97.2434 28.7721 96.5845 28.0381 95.5424 28.0381Z" fill="#E3E0BA"/>
<path d="M110.486 30.2199L109.573 34.6652C109.488 35.0209 109.444 35.3788 109.444 35.7142C109.444 36.4686 109.678 36.8878 109.889 36.9512H106.873L108.276 30.6594C108.381 30.2199 108.466 29.7169 108.466 29.4428C108.466 28.7087 108.147 28.2261 107.424 28.2261C106.405 28.2261 104.917 29.3793 104.534 31.1398L103.26 36.949H101.093L102.856 28.9806C102.877 28.8537 102.897 28.7291 102.897 28.5818C102.897 28.0992 102.557 27.7435 102.048 27.6801L101.899 27.6597L105.34 26.758L104.959 28.5818C105.787 27.6166 107.231 26.7783 108.654 26.7783C109.993 26.7783 110.716 27.3855 110.716 28.6656C110.716 29.0418 110.61 29.5878 110.482 30.2176L110.486 30.2199Z" fill="#E3E0BA"/>
<path d="M123.105 30.0726C123.125 29.9458 123.169 29.7169 123.169 29.6104C123.169 28.6045 122.361 28.1015 121.447 28.1015C120.639 28.1015 119.62 28.5841 119.62 29.5266C119.62 31.1194 123.509 31.7492 123.509 34.2868C123.509 36.3622 121.447 37.2843 119.429 37.2843C118.302 37.2843 117.049 37.0124 116.264 36.5298L117.028 33.5731C117.155 34.8509 117.878 35.943 119.406 35.943C120.511 35.943 121.362 35.44 121.362 34.6221C121.362 33.0293 117.644 32.5241 117.644 29.9661C117.644 27.7231 119.831 26.758 121.702 26.758C122.935 26.758 124.443 27.1975 124.443 28.4142C124.443 29.1482 123.74 29.6943 123.105 30.0704V30.0726Z" fill="#E3E0BA"/>
<path d="M129.137 28.2895L128.054 33.1132C127.927 33.6796 127.778 34.2664 127.778 34.7694C127.778 35.5873 128.162 35.9226 128.99 35.9226C129.605 35.9226 130.349 35.6507 130.882 35.3562C130.159 36.804 128.735 37.2639 127.652 37.2639C126.249 37.2639 125.464 36.5933 125.464 35.3766C125.464 35.0209 125.529 34.6221 125.613 34.203L126.972 28.2895H125.57L129.904 24.6826L129.394 27.0933H132.071L131.816 28.2895H129.137Z" fill="#E3E0BA"/>
<path d="M140.328 35.0209C140.307 35.2089 140.263 35.397 140.263 35.5442C140.263 35.9838 140.518 36.2579 141.048 36.3418L141.198 36.3622L137.842 37.2639L138.225 35.4196C137.417 36.4686 135.845 37.2435 134.527 37.2435C133.209 37.2435 132.466 36.6363 132.466 35.3562C132.466 34.9778 132.53 34.5791 132.615 34.1826C132.615 34.1826 133.508 29.9684 133.593 29.5062C133.657 29.1279 133.698 28.856 133.698 28.6045C133.698 28.0381 133.464 27.7662 132.934 27.6823L132.805 27.662L136.375 26.7602C136.246 27.347 134.823 33.743 134.823 33.743C134.759 34.0149 134.717 34.3502 134.717 34.6652C134.717 35.3358 134.972 35.798 135.716 35.798C136.843 35.798 138.287 34.4975 138.647 32.8617L139.391 29.5062C139.476 29.1075 139.54 28.7721 139.54 28.5206C139.54 27.9746 139.221 27.7866 138.712 27.6823L138.606 27.662L142.176 26.7602C142.176 26.7602 140.454 34.246 140.328 35.0231V35.0209Z" fill="#E3E0BA"/>
<path d="M151.197 34.4545C151.133 34.7898 151.068 35.1251 151.068 35.4196C151.068 36.0699 151.452 36.301 152.003 36.3848L152.152 36.4052L148.603 37.2639L149.028 35.2724C148.008 36.5933 146.732 37.2435 145.394 37.2435C143.672 37.2435 142.887 35.8388 142.887 34.0557C142.887 30.9313 145.288 26.7806 148.794 26.7806C149.537 26.7806 150.152 27.0321 150.515 27.662L151.218 24.5172C151.238 24.413 151.238 24.3065 151.238 24.2023C151.238 23.6585 150.793 23.364 150.26 23.2801L150.134 23.2597L153.853 22.358L151.197 34.459V34.4545ZM148.711 28.1853C146.693 28.1853 145.185 31.5408 145.185 33.743C145.185 34.8759 145.545 35.755 146.397 35.755C147.375 35.755 148.458 34.8532 149.179 33.3851C149.563 32.5875 150.008 30.5122 150.008 29.7577C150.008 28.8356 149.668 28.1853 148.711 28.1853Z" fill="#E3E0BA"/>
<path d="M156.213 34.6652C156.107 35.1477 156.063 35.5239 156.063 35.8388C156.063 36.6159 156.318 36.9082 156.488 36.9512H153.492L155.278 28.9625C155.299 28.8378 155.32 28.6906 155.32 28.5637C155.32 28.0811 154.936 27.662 154.47 27.662H154.321L157.932 26.7602L156.21 34.6652H156.213ZM157.126 25.249C156.341 25.249 155.852 24.6826 155.852 23.9916C155.852 23.194 156.47 22.5438 157.34 22.5438C158.125 22.5438 158.593 23.1102 158.593 23.8012C158.593 24.5761 157.998 25.249 157.126 25.249Z" fill="#E3E0BA"/>
<path d="M162.22 37.2435C159.693 37.2435 158.671 35.2928 158.671 33.3216C158.671 30.1338 161.113 26.7987 164.408 26.7987C166.937 26.7987 167.998 28.7495 167.998 30.7206C167.998 33.845 165.64 37.2412 162.22 37.2412V37.2435ZM164.196 28.1853C162.071 28.1853 160.882 31.7923 160.882 33.5754C160.882 34.6017 161.265 35.8614 162.454 35.8614C164.58 35.8614 165.748 32.2749 165.748 30.4941C165.748 29.445 165.388 28.1876 164.196 28.1876V28.1853Z" fill="#E3E0BA"/>
<path d="M13.1819 15.0217V31.2463L17.9933 26.4974H24.8064L13.1819 15.0217ZM37.9367 18.1824L35.0857 6.25582C34.6908 4.60414 33.3893 3.31045 31.7204 2.90716L20.3646 0.172481C19.4005 -0.0586185 18.395 -0.0586118 17.4309 0.179284L6.34133 2.90035C4.6748 3.30817 3.38243 4.60415 2.99219 6.25357L0.161833 18.1982C-0.0539444 19.1045 -0.0539444 20.0493 0.161833 20.9555L2.99219 32.9002C3.38243 34.5496 4.67709 35.8433 6.34133 36.2534L17.4309 38.9745C18.3927 39.2101 19.4005 39.2124 20.3646 38.9813L31.7204 36.2466C33.3916 35.8433 34.6908 34.5496 35.0857 32.8979L37.9367 20.9714C38.1547 20.0583 38.1547 19.1068 37.9367 18.1914V18.1824ZM18.9574 15.0217C19.6162 15.0217 20.2452 15.28 20.7112 15.7377L28.9222 23.842C29.278 24.1932 29.5581 24.6078 29.7463 25.0609C29.9345 25.5141 30.0355 25.9989 30.0355 26.4974C30.0355 27.4943 29.6338 28.4481 28.9199 29.1528L26.7989 31.2463H10.8497C9.47929 31.2463 8.37056 30.1497 8.37056 28.7993V10.3476C8.37056 8.99504 9.48158 7.9007 10.8497 7.9007H30.0332L23.654 14.1948C22.6509 13.2047 21.2897 12.6496 19.871 12.6496H14.4192C13.7352 12.6496 13.1796 13.1979 13.1796 13.873V15.024H18.9528L18.9574 15.0217ZM17.9933 26.4974H24.8064L13.1819 15.0217V31.2463L17.9933 26.4974Z" fill="#E3E0BA"/>
</svg>
